HIERARCHY
ROOT Hips
{
 OFFSET 0.000000 0.000000 0.000000
 CHANNELS 6 Xposition Yposition Zposition Yrotation Xrotation Zrotation
 JOINT Chest
 {
  OFFSET 0.000000 9.585900 0.002600
  CHANNELS 3 Yrotation Xrotation Zrotation
  JOINT Chest2
  {
   OFFSET 0.000000 9.601200 -0.005300
   CHANNELS 3 Yrotation Xrotation Zrotation
   JOINT Chest3
   {
    OFFSET 0.000000 9.561800 0.000000
    CHANNELS 3 Yrotation Xrotation Zrotation
    JOINT Chest4
    {
     OFFSET 0.000000 9.552100 0.000000
     CHANNELS 3 Yrotation Xrotation Zrotation
     JOINT Neck
     {
      OFFSET 0.000000 14.453000 0.000000
      CHANNELS 3 Yrotation Xrotation Zrotation
      JOINT Head
      {
       OFFSET 0.000000 8.936500 -0.011300
       CHANNELS 3 Yrotation Xrotation Zrotation
       End Site
       {
        OFFSET 0.000000 17.073600 -0.006000
       }
      }
     }
     JOINT RightCollar
     {
      OFFSET -2.921100 9.558500 0.000000
      CHANNELS 3 Yrotation Xrotation Zrotation
      JOINT RightShoulder
      {
       OFFSET -13.519700 0.000000 0.000000
       CHANNELS 3 Yrotation Xrotation Zrotation
       JOINT RightElbow
       {
        OFFSET 0.000000 -29.696600 0.000000
        CHANNELS 3 Yrotation Xrotation Zrotation
        JOINT RightWrist
        {
         OFFSET 0.000000 -24.004700 0.000000
         CHANNELS 3 Yrotation Xrotation Zrotation
         End Site
         {
          OFFSET 0.000000 -17.728500 0.000000
         }
        }
       }
      }
     }
     JOINT LeftCollar
     {
      OFFSET 2.921100 9.558500 0.000000
      CHANNELS 3 Yrotation Xrotation Zrotation
      JOINT LeftShoulder
      {
       OFFSET 13.519700 0.000000 0.000000
       CHANNELS 3 Yrotation Xrotation Zrotation
       JOINT LeftElbow
       {
        OFFSET 0.000000 -29.696600 0.000000
        CHANNELS 3 Yrotation Xrotation Zrotation
        JOINT LeftWrist
        {
         OFFSET 0.000000 -24.004700 0.000000
         CHANNELS 3 Yrotation Xrotation Zrotation
         End Site
         {
          OFFSET 0.000000 -17.728500 0.000000
         }
        }
       }
      }
     }
    }
   }
  }
 }
 JOINT RightHip
 {
  OFFSET -7.771700 -0.012900 -0.001300
  CHANNELS 3 Yrotation Xrotation Zrotation
  JOINT RightKnee
  {
   OFFSET 0.000000 -40.869800 0.001200
   CHANNELS 3 Yrotation Xrotation Zrotation
   JOINT RightAnkle
   {
    OFFSET 0.000000 -39.717900 0.002100
    CHANNELS 3 Yrotation Xrotation Zrotation
    JOINT RightToe
    {
     OFFSET 0.000000 -4.965400 11.033500
     CHANNELS 3 Yrotation Xrotation Zrotation
     End Site
     {
      OFFSET 0.000000 -1.423100 5.872300
     }
    }
   }
  }
 }
 JOINT LeftHip
 {
  OFFSET 7.771700 -0.012900 -0.001300
  CHANNELS 3 Yrotation Xrotation Zrotation
  JOINT LeftKnee
  {
   OFFSET 0.000000 -40.869800 0.001200
   CHANNELS 3 Yrotation Xrotation Zrotation
   JOINT LeftAnkle
   {
    OFFSET 0.000000 -39.717900 0.002100
    CHANNELS 3 Yrotation Xrotation Zrotation
    JOINT LeftToe
    {
     OFFSET 0.000000 -4.965400 11.033500
     CHANNELS 3 Yrotation Xrotation Zrotation
     End Site
     {
      OFFSET 0.000000 -1.423100 5.872300
     }
    }
   }
  }
 }
}
MOTION
Frames: 8
Frame Time: 0.008333
0.000000 85.388000 0.000000 0.000000 -5.767877 0.000000 0.000000 11.653817 0.000000 0.000000 -5.885947 0.000000 0.000000 -0.000000 0.000000 0.000000 -0.000000 0.000000 0.000000 12.528835 0.000000 0.000000 0.711642 0.000000 0.000000 -0.000000 0.000000 0.000000 0.000000 -90.000000 0.000000 -2.309062 0.000000 0.000000 2.309062 0.000000 0.000000 -0.000000 0.000000 0.000000 -0.000000 90.000000 0.000000 -2.309062 0.000000 0.000000 2.309062 0.000000 0.000000 8.520406 0.000000 0.000000 1.905762 0.000000 -0.000000 -4.658285 0.000000 0.000000 -0.000000 0.000000 0.000000 8.520406 0.000000 0.000000 1.905762 0.000000 -0.000000 -4.658285 0.000000 0.000000 -0.000000 0.000000
-7.415150 55.500003 26.855980 179.110157 -27.560435 -11.784639 0.559942 12.651640 5.827284 0.036744 7.368964 1.816833 0.077715 9.209629 2.276610 0.031475 7.368502 1.814557 -8.890992 17.088183 0.375424 -9.848384 -7.367432 2.489593 -0.344472 0.952369 -3.370241 -12.867202 -6.119998 4.670686 109.132572 -66.265886 -91.866468 12.889773 -13.942667 -17.737825 -9.149135 1.070421 -4.079382 -3.118971 2.861679 0.886970 -112.441114 -57.851986 121.654222 9.671964 -13.417766 -10.712284 -20.953853 -36.269283 10.884884 39.815271 85.199949 36.306424 1.585696 -19.728916 -1.323440 -1.143283 2.550253 -0.529496 -17.692865 -49.419540 19.992078 177.306806 79.713123 172.507820 -2.373670 -18.605916 1.685973 -0.078392 -0.526589 -0.038363
-7.410552 55.501643 26.852976 179.101825 -27.584837 -11.794779 0.570471 12.671376 5.838090 0.035183 7.370001 1.817002 0.086361 9.212925 2.280971 0.029437 7.368993 1.813507 -8.804565 17.150753 0.372484 -9.760126 -7.307887 2.461019 -0.323656 0.941218 -3.346458 -12.828132 -6.064677 4.734709 108.314686 -66.262777 -91.177949 12.937902 -13.992110 -17.954483 -9.125482 1.068324 -4.058921 -3.070508 2.856363 0.985636 -112.441551 -57.990229 121.654899 9.720567 -13.442791 -10.664604 -20.950830 -36.242946 10.879839 39.770937 85.201211 36.286782 1.579321 -19.710569 -1.347536 -1.115099 2.533306 -0.518398 -17.686629 -49.392188 20.004828 177.339952 79.706453 172.546239 -2.369951 -18.613107 1.682175 -0.080640 -0.528645 -0.038779
-7.406503 55.502263 26.850724 179.106035 -27.597809 -11.801855 0.575660 12.672162 5.847279 0.035019 7.379705 1.818931 0.084774 9.215847 2.281412 0.038087 7.373193 1.820577 -8.718829 17.210909 0.361829 -9.660454 -7.241732 2.426958 -0.313283 0.924418 -3.329858 -12.805182 -6.005327 4.804407 107.536319 -66.132292 -90.514361 13.042493 -14.060500 -18.163134 -9.126417 1.060843 -4.056263 -3.036766 2.839160 1.041709 -112.416537 -58.050687 121.570609 9.659700 -13.440403 -10.585131 -20.975002 -36.220484 10.876233 39.784316 85.195690 36.302430 1.592682 -19.712576 -1.366854 -1.113309 2.536028 -0.514475 -17.688413 -49.378229 20.010000 177.374635 79.702118 172.585602 -2.368208 -18.618257 1.679036 -0.079988 -0.528875 -0.039370
-7.400632 55.503218 26.847520 179.114712 -27.613644 -11.815904 0.574406 12.686847 5.858437 0.041382 7.375046 1.823966 0.089050 9.218230 2.285469 0.041481 7.375053 1.824027 -8.623475 17.276417 0.352027 -9.547325 -7.174992 2.389032 -0.308465 0.913929 -3.318663 -12.793509 -5.943277 4.880434 106.822721 -65.948459 -89.897737 13.179720 -14.110183 -18.315198 -9.127859 1.060520 -4.053247 -3.015460 2.821964 1.083400 -112.276249 -58.062255 121.390868 9.617900 -13.465655 -10.531595 -21.023005 -36.184767 10.880156 39.865081 85.179530 36.374222 1.613338 -19.725210 -1.377120 -1.118432 2.549365 -0.528533 -17.699957 -49.359071 20.026895 177.449770 79.695853 172.662218 -2.366320 -18.623232 1.682223 -0.080666 -0.530208 -0.042726
-7.395928 55.503550 26.843604 179.125717 -27.628580 -11.817630 0.572566 12.695665 5.858966 0.044646 7.375598 1.828576 0.093298 9.219012 2.291371 0.044736 7.375644 1.828589 -8.522900 17.339958 0.339586 -9.422091 -7.112467 2.349985 -0.304797 0.908779 -3.306898 -12.793129 -5.886331 4.946418 106.184490 -65.786135 -89.339499 13.320846 -14.109610 -18.372765 -9.099652 1.066647 -4.021106 -3.053314 2.812144 1.058175 -112.014120 -58.010614 121.136982 9.597796 -13.516052 -10.493894 -21.041451 -36.164754 10.869504 39.916132 85.180186 36.427911 1.611206 -19.725000 -1.393230 -1.104121 2.543924 -0.524807 -17.698679 -49.343144 20.022400 177.496564 79.690619 172.709382 -2.364988 -18.628873 1.682931 -0.078616 -0.529959 -0.041516
-7.390659 55.503505 26.839169 179.136460 -27.643492 -11.816826 0.568442 12.702577 5.859211 0.046077 7.376808 1.831702 0.104727 9.215878 2.302301 0.035578 7.380773 1.826392 -8.407391 17.399708 0.327490 -9.288545 -7.057075 2.311873 -0.277090 0.928361 -3.273927 -12.821840 -5.883155 4.948953 105.586553 -65.739678 -88.798559 13.432809 -14.050406 -18.301785 -9.084838 1.077822 -4.008726 -2.994090 2.739384 1.170115 -111.837819 -58.084702 120.897922 9.558389 -13.557990 -10.463172 -21.052025 -36.147790 10.856710 39.968729 85.184272 36.485281 1.605491 -19.723611 -1.405904 -1.093169 2.537057 -0.517231 -17.689085 -49.329624 20.011126 177.514373 79.684549 172.729643 -2.364015 -18.633846 1.685614 -0.081880 -0.531403 -0.043184
-7.385050 55.502951 26.834293 179.147605 -27.658310 -11.813200 0.573683 12.700699 5.862348 0.049983 7.380504 1.837199 0.085464 9.227050 2.292589 0.048530 7.377955 1.835236 -8.288985 17.454740 0.319132 -9.148899 -7.009954 2.275566 -0.280382 0.939761 -3.271839 -12.829515 -5.868117 4.980960 105.025239 -65.787387 -88.281806 13.493180 -13.937891 -18.086439 -9.094221 1.083182 -4.011553 -2.939790 2.691231 1.264214 -111.629566 -58.116530 120.669072 9.526845 -13.609503 -10.438148 -21.054574 -36.134259 10.841876 40.030371 85.191710 36.553539 1.587797 -19.721391 -1.403537 -1.080831 2.529258 -0.512244 -17.672308 -49.317291 19.993073 177.525932 79.678059 172.745596 -2.364001 -18.641251 1.688198 -0.088531 -0.530888 -0.043626
